<svg width="421" height="107" viewBox="0 0 421 107" fill="none" xmlns="http://www.w3.org/2000/svg">
<path d="M30.6875 41.879L26.849 38.3859V5.24198L24.9323 3.49307H11.5156L15.3333 6.98615V40.1301L17.25 41.879H30.6875ZM5.76042 45.372L0 40.1301V5.24198L5.76042 0H36.4479L42.1823 5.24198V40.1301L36.4479 45.372H5.76042Z" fill="black"/>
<path d="M74.599 27.9256L76.5156 26.1815V5.24198L74.599 3.49307H61.1615L65 6.98615V27.9256H74.599ZM45.8281 45.372L49.6667 41.879V3.49307L45.8281 0H86.0885L91.849 5.24198V26.1815L86.0885 31.4187H61.1615L65 34.8928V41.879L68.8385 45.372H45.8281Z" fill="black"/>
<path d="M126.516 20.9395V6.98615L122.677 3.49307H118.839L115 6.98615V20.9395H126.516ZM95.8281 45.372L99.6667 41.879V10.4792L111.161 0H130.354L141.849 10.4792V41.879L145.688 45.372H124.599L126.516 41.879V27.9256L130.354 24.4326H111.161L115 27.9256V41.879L116.917 45.372H95.8281Z" fill="black"/>
<path d="M180.516 41.879L176.677 38.3859V5.24198L174.76 3.49307H161.344L165.161 6.98615V40.1301L167.078 41.879H180.516ZM155.589 45.372L149.828 40.1301V5.24198L155.589 0H186.276L192.01 5.24198V36.637L186.276 41.879H192.01L195.849 45.372H155.589Z" fill="black"/>
<path d="M209.427 45.372L203.667 40.1301V3.49307L199.828 0H220.917L219 3.49307V38.3859L215.161 41.879H234.354L230.516 38.3859V3.49307L228.599 0H249.688L245.849 3.49307V40.1301L240.089 45.372H209.427Z" fill="black"/>
<path d="M253.828 45.372L257.667 41.879V3.49307L253.828 0H292.172V10.4792L284.516 3.49307H269.161L273 6.98615V17.4464H280.677L284.516 13.9533V24.4326L280.677 20.9395H269.161L273 24.4326V40.1301L269.161 41.879H284.516L292.172 34.8928V45.372H253.828Z" fill="black"/>
<path d="M0 106.372L3.83854 102.879V64.4931L0 61H23.0104L19.1719 64.4931V102.879L23.0104 106.372H0Z" fill="black"/>
<path d="M26.8281 106.372L30.6667 102.879V64.4931L28.75 61H44.0781L61.3542 92.4187V64.4931L59.4375 61H69.0104L65.1719 64.4931V102.879L67.0885 106.372H53.6771L34.5052 71.4792V102.879L36.4271 106.372H26.8281Z" fill="black"/>
<path d="M101.599 102.879L103.516 101.13V66.242L101.599 64.4931H88.1615L92 67.9861V99.3859L88.1615 102.879H101.599ZM72.8281 106.372L76.6667 102.879V64.4931L72.8281 61H113.089L118.849 66.242V101.13L113.089 106.372H72.8281Z" fill="black"/>
<path d="M132.427 106.372L126.667 101.13V64.4931L122.828 61H143.917L142 64.4931V99.3859L138.161 102.879H157.354L153.516 99.3859V64.4931L151.599 61H172.688L168.849 64.4931V101.13L163.089 106.372H132.427Z" fill="black"/>
<path d="M176.828 106.372V87.1815L194.078 102.879H203.677V101.13L178.75 78.4464V67.9861L186.427 61H203.677L207.516 64.4931L211.354 61V76.6975L197.917 64.4931H188.344V66.242L213.276 88.9256V99.3859L205.599 106.372H184.505L180.667 102.879L176.828 106.372Z" fill="black"/>
<path d="M226.427 106.372L228.344 102.879V66.242L232.161 64.4931H220.667L216.828 67.9861V61H255.172V67.9861L251.354 64.4931H239.839L243.677 66.242V102.879L245.599 106.372H226.427Z" fill="black"/>
<path d="M287.62 85.2763L289.537 83.5274V67.8299L285.699 64.3368H274.183L278.021 67.8299V85.2763H287.62ZM258.85 106.216L262.688 102.723V64.3368L258.85 60.8438H299.11L304.87 66.0857V80.0343L299.11 85.2763L308.709 102.723L312.548 106.216H295.298L285.699 88.7694H274.183L278.021 92.2624V102.723L281.86 106.216H258.85Z" fill="black"/>
<path d="M316.064 106.216L319.903 102.723V64.3368L316.064 60.8438H339.075L335.236 64.3368V102.723L339.075 106.216H316.064Z" fill="black"/>
<path d="M342.59 106.216L346.428 102.723V64.3368L342.59 60.8438H380.934V71.323L373.277 64.3368H357.923L361.762 67.8299V78.2902H369.439L373.277 74.7971V85.2763L369.439 81.7832H357.923L361.762 85.2763V100.974L357.923 102.723H373.277L380.934 95.7366V106.216H342.59Z" fill="black"/>
<path d="M384.447 106.216V87.0252L401.697 102.723H411.296V100.974L386.369 78.2902V67.8299L394.046 60.8438H411.296L415.135 64.3368L418.973 60.8438V76.5413L405.536 64.3368H395.963V66.0857L420.895 88.7694V99.2296L413.218 106.216H392.124L388.286 102.723L384.447 106.216Z" fill="black"/>
<path d="M30.6875 41.879L26.849 38.3859V5.24198L24.9323 3.49307H11.5156L15.3333 6.98615V40.1301L17.25 41.879H30.6875ZM5.76042 45.372L0 40.1301V5.24198L5.76042 0H36.4479L42.1823 5.24198V40.1301L36.4479 45.372H5.76042Z" fill="black"/>
<path d="M74.599 27.9256L76.5156 26.1815V5.24198L74.599 3.49307H61.1615L65 6.98615V27.9256H74.599ZM45.8281 45.372L49.6667 41.879V3.49307L45.8281 0H86.0885L91.849 5.24198V26.1815L86.0885 31.4187H61.1615L65 34.8928V41.879L68.8385 45.372H45.8281Z" fill="black"/>
<path d="M126.516 20.9395V6.98615L122.677 3.49307H118.839L115 6.98615V20.9395H126.516ZM95.8281 45.372L99.6667 41.879V10.4792L111.161 0H130.354L141.849 10.4792V41.879L145.688 45.372H124.599L126.516 41.879V27.9256L130.354 24.4326H111.161L115 27.9256V41.879L116.917 45.372H95.8281Z" fill="black"/>
<path d="M180.516 41.879L176.677 38.3859V5.24198L174.76 3.49307H161.344L165.161 6.98615V40.1301L167.078 41.879H180.516ZM155.589 45.372L149.828 40.1301V5.24198L155.589 0H186.276L192.01 5.24198V36.637L186.276 41.879H192.01L195.849 45.372H155.589Z" fill="black"/>
<path d="M209.427 45.372L203.667 40.1301V3.49307L199.828 0H220.917L219 3.49307V38.3859L215.161 41.879H234.354L230.516 38.3859V3.49307L228.599 0H249.688L245.849 3.49307V40.1301L240.089 45.372H209.427Z" fill="black"/>
<path d="M253.828 45.372L257.667 41.879V3.49307L253.828 0H292.172V10.4792L284.516 3.49307H269.161L273 6.98615V17.4464H280.677L284.516 13.9533V24.4326L280.677 20.9395H269.161L273 24.4326V40.1301L269.161 41.879H284.516L292.172 34.8928V45.372H253.828Z" fill="black"/>
<path d="M0 106.372L3.83854 102.879V64.4931L0 61H23.0104L19.1719 64.4931V102.879L23.0104 106.372H0Z" fill="black"/>
<path d="M26.8281 106.372L30.6667 102.879V64.4931L28.75 61H44.0781L61.3542 92.4187V64.4931L59.4375 61H69.0104L65.1719 64.4931V102.879L67.0885 106.372H53.6771L34.5052 71.4792V102.879L36.4271 106.372H26.8281Z" fill="black"/>
<path d="M101.599 102.879L103.516 101.13V66.242L101.599 64.4931H88.1615L92 67.9861V99.3859L88.1615 102.879H101.599ZM72.8281 106.372L76.6667 102.879V64.4931L72.8281 61H113.089L118.849 66.242V101.13L113.089 106.372H72.8281Z" fill="black"/>
<path d="M132.427 106.372L126.667 101.13V64.4931L122.828 61H143.917L142 64.4931V99.3859L138.161 102.879H157.354L153.516 99.3859V64.4931L151.599 61H172.688L168.849 64.4931V101.13L163.089 106.372H132.427Z" fill="black"/>
<path d="M176.828 106.372V87.1815L194.078 102.879H203.677V101.13L178.75 78.4464V67.9861L186.427 61H203.677L207.516 64.4931L211.354 61V76.6975L197.917 64.4931H188.344V66.242L213.276 88.9256V99.3859L205.599 106.372H184.505L180.667 102.879L176.828 106.372Z" fill="black"/>
<path d="M226.427 106.372L228.344 102.879V66.242L232.161 64.4931H220.667L216.828 67.9861V61H255.172V67.9861L251.354 64.4931H239.839L243.677 66.242V102.879L245.599 106.372H226.427Z" fill="black"/>
<path d="M287.62 85.2763L289.537 83.5274V67.8299L285.699 64.3368H274.183L278.021 67.8299V85.2763H287.62ZM258.85 106.216L262.688 102.723V64.3368L258.85 60.8438H299.11L304.87 66.0857V80.0343L299.11 85.2763L308.709 102.723L312.548 106.216H295.298L285.699 88.7694H274.183L278.021 92.2624V102.723L281.86 106.216H258.85Z" fill="black"/>
<path d="M316.064 106.216L319.903 102.723V64.3368L316.064 60.8438H339.075L335.236 64.3368V102.723L339.075 106.216H316.064Z" fill="black"/>
<path d="M342.59 106.216L346.428 102.723V64.3368L342.59 60.8438H380.934V71.323L373.277 64.3368H357.923L361.762 67.8299V78.2902H369.439L373.277 74.7971V85.2763L369.439 81.7832H357.923L361.762 85.2763V100.974L357.923 102.723H373.277L380.934 95.7366V106.216H342.59Z" fill="black"/>
<path d="M384.447 106.216V87.0252L401.697 102.723H411.296V100.974L386.369 78.2902V67.8299L394.046 60.8438H411.296L415.135 64.3368L418.973 60.8438V76.5413L405.536 64.3368H395.963V66.0857L420.895 88.7694V99.2296L413.218 106.216H392.124L388.286 102.723L384.447 106.216Z" fill="black"/>
</svg>
