<svg width="421" height="106" viewBox="0 0 421 106" fill="none" xmlns="http://www.w3.org/2000/svg">
<path d="M30.6875 42.0352L26.849 38.5421V5.39823L24.9323 3.64932H11.5156L15.3333 7.1424V40.2863L17.25 42.0352H30.6875ZM5.76042 45.5283L0 40.2863V5.39823L5.76042 0.15625H36.4479L42.1823 5.39823V40.2863L36.4479 45.5283H5.76042Z" fill="white"/>
<path d="M74.599 28.0819L76.5156 26.3377V5.39823L74.599 3.64932H61.1615L65 7.1424V28.0819H74.599ZM45.8281 45.5283L49.6667 42.0352V3.64932L45.8281 0.15625H86.0885L91.849 5.39823V26.3377L86.0885 31.5749H61.1615L65 35.0491V42.0352L68.8385 45.5283H45.8281Z" fill="white"/>
<path d="M126.516 21.0957V7.1424L122.677 3.64932H118.839L115 7.1424V21.0957H126.516ZM95.8281 45.5283L99.6667 42.0352V10.6355L111.161 0.15625H130.354L141.849 10.6355V42.0352L145.688 45.5283H124.599L126.516 42.0352V28.0819L130.354 24.5888H111.161L115 28.0819V42.0352L116.917 45.5283H95.8281Z" fill="white"/>
<path d="M180.516 42.0352L176.677 38.5421V5.39823L174.76 3.64932H161.344L165.161 7.1424V40.2863L167.078 42.0352H180.516ZM155.589 45.5283L149.828 40.2863V5.39823L155.589 0.15625H186.276L192.01 5.39823V36.7932L186.276 42.0352H192.01L195.849 45.5283H155.589Z" fill="white"/>
<path d="M209.427 45.5283L203.667 40.2863V3.64932L199.828 0.15625H220.917L219 3.64932V38.5421L215.161 42.0352H234.354L230.516 38.5421V3.64932L228.599 0.15625H249.688L245.849 3.64932V40.2863L240.089 45.5283H209.427Z" fill="white"/>
<path d="M253.828 45.5283L257.667 42.0352V3.64932L253.828 0.15625H292.172V10.6355L284.516 3.64932H269.161L273 7.1424V17.6027H280.677L284.516 14.1096V24.5888L280.677 21.0957H269.161L273 24.5888V40.2863L269.161 42.0352H284.516L292.172 35.0491V45.5283H253.828Z" fill="white"/>
<path d="M0 105.528L3.83854 102.035V63.6493L0 60.1562H23.0104L19.1719 63.6493V102.035L23.0104 105.528H0Z" fill="white"/>
<path d="M26.8281 105.528L30.6667 102.035V63.6493L28.75 60.1562H44.0781L61.3542 91.5749V63.6493L59.4375 60.1562H69.0104L65.1719 63.6493V102.035L67.0885 105.528H53.6771L34.5052 70.6355V102.035L36.4271 105.528H26.8281Z" fill="white"/>
<path d="M101.599 102.035L103.516 100.286V65.3982L101.599 63.6493H88.1615L92 67.1424V98.5421L88.1615 102.035H101.599ZM72.8281 105.528L76.6667 102.035V63.6493L72.8281 60.1562H113.089L118.849 65.3982V100.286L113.089 105.528H72.8281Z" fill="white"/>
<path d="M132.427 105.528L126.667 100.286V63.6493L122.828 60.1562H143.917L142 63.6493V98.5421L138.161 102.035H157.354L153.516 98.5421V63.6493L151.599 60.1562H172.688L168.849 63.6493V100.286L163.089 105.528H132.427Z" fill="white"/>
<path d="M176.828 105.528V86.3377L194.078 102.035H203.677V100.286L178.75 77.6027V67.1424L186.427 60.1562H203.677L207.516 63.6493L211.354 60.1562V75.8538L197.917 63.6493H188.344V65.3982L213.276 88.0819V98.5421L205.599 105.528H184.505L180.667 102.035L176.828 105.528Z" fill="white"/>
<path d="M226.427 105.528L228.344 102.035V65.3982L232.161 63.6493H220.667L216.828 67.1424V60.1562H255.172V67.1424L251.354 63.6493H239.839L243.677 65.3982V102.035L245.599 105.528H226.427Z" fill="white"/>
<path d="M287.62 84.4326L289.537 82.6836V66.9861L285.699 63.4931H274.183L278.021 66.9861V84.4326H287.62ZM258.85 105.372L262.688 101.879V63.4931L258.85 60H299.11L304.87 65.242V79.1906L299.11 84.4326L308.709 101.879L312.548 105.372H295.298L285.699 87.9256H274.183L278.021 91.4187V101.879L281.86 105.372H258.85Z" fill="white"/>
<path d="M316.064 105.372L319.903 101.879V63.4931L316.064 60H339.075L335.236 63.4931V101.879L339.075 105.372H316.064Z" fill="white"/>
<path d="M342.59 105.372L346.428 101.879V63.4931L342.59 60H380.934V70.4792L373.277 63.4931H357.923L361.762 66.9861V77.4464H369.439L373.277 73.9533V84.4326L369.439 80.9395H357.923L361.762 84.4326V100.13L357.923 101.879H373.277L380.934 94.8928V105.372H342.59Z" fill="white"/>
<path d="M384.447 105.372V86.1815L401.697 101.879H411.296V100.13L386.369 77.4464V66.9861L394.046 60H411.296L415.135 63.4931L418.973 60V75.6975L405.536 63.4931H395.963V65.242L420.895 87.9256V98.3859L413.218 105.372H392.124L388.286 101.879L384.447 105.372Z" fill="white"/>
</svg>
